<svg width="1200" height="630" viewBox="0 0 1200 630" fill="none" xmlns="http://www.w3.org/2000/svg">
  <defs>
    <linearGradient id="g1" x1="0" y1="0" x2="1200" y2="0" gradientUnits="userSpaceOnUse">
      <stop offset="0%" stop-color="#7c3aed"/>
      <stop offset="100%" stop-color="#06b6d4"/>
    </linearGradient>
    <linearGradient id="glow" cx="50%" cy="50%" r="50%" fx="50%" fy="50%">
      <stop offset="0%" stop-color="#4f46e5" stop-opacity="0.25"/>
      <stop offset="100%" stop-color="#4f46e5" stop-opacity="0"/>
    </linearGradient>
  </defs>

  <!-- Background -->
  <rect width="1200" height="630" fill="#0a0f1e"/>

  <!-- Subtle radial glow left -->
  <ellipse cx="180" cy="315" rx="420" ry="380" fill="#4f46e5" fill-opacity="0.10"/>

  <!-- Dot grid pattern (hand-placed rows) -->
  <g fill="#ffffff" fill-opacity="0.05">
    <circle cx="760" cy="160" r="1.5"/><circle cx="820" cy="160" r="1.5"/><circle cx="880" cy="160" r="1.5"/><circle cx="940" cy="160" r="1.5"/><circle cx="1000" cy="160" r="1.5"/><circle cx="1060" cy="160" r="1.5"/><circle cx="1120" cy="160" r="1.5"/>
    <circle cx="760" cy="220" r="1.5"/><circle cx="820" cy="220" r="1.5"/><circle cx="880" cy="220" r="1.5"/><circle cx="940" cy="220" r="1.5"/><circle cx="1000" cy="220" r="1.5"/><circle cx="1060" cy="220" r="1.5"/><circle cx="1120" cy="220" r="1.5"/>
    <circle cx="760" cy="280" r="1.5"/><circle cx="820" cy="280" r="1.5"/><circle cx="880" cy="280" r="1.5"/><circle cx="940" cy="280" r="1.5"/><circle cx="1000" cy="280" r="1.5"/><circle cx="1060" cy="280" r="1.5"/><circle cx="1120" cy="280" r="1.5"/>
    <circle cx="760" cy="340" r="1.5"/><circle cx="820" cy="340" r="1.5"/><circle cx="880" cy="340" r="1.5"/><circle cx="940" cy="340" r="1.5"/><circle cx="1000" cy="340" r="1.5"/><circle cx="1060" cy="340" r="1.5"/><circle cx="1120" cy="340" r="1.5"/>
    <circle cx="760" cy="400" r="1.5"/><circle cx="820" cy="400" r="1.5"/><circle cx="880" cy="400" r="1.5"/><circle cx="940" cy="400" r="1.5"/><circle cx="1000" cy="400" r="1.5"/><circle cx="1060" cy="400" r="1.5"/><circle cx="1120" cy="400" r="1.5"/>
    <circle cx="760" cy="460" r="1.5"/><circle cx="820" cy="460" r="1.5"/><circle cx="880" cy="460" r="1.5"/><circle cx="940" cy="460" r="1.5"/><circle cx="1000" cy="460" r="1.5"/><circle cx="1060" cy="460" r="1.5"/><circle cx="1120" cy="460" r="1.5"/>
  </g>

  <!-- Top gradient bar -->
  <rect x="0" y="0" width="1200" height="4" fill="url(#g1)"/>

  <!-- Bottom gradient bar -->
  <rect x="0" y="626" width="1200" height="4" fill="url(#g1)"/>

  <!-- Left accent vertical bar -->
  <rect x="80" y="168" width="4" height="172" rx="2" fill="url(#g1)"/>

  <!-- Name -->
  <text x="110" y="248"
        font-family="-apple-system, BlinkMacSystemFont, 'Segoe UI', Helvetica, Arial, sans-serif"
        font-size="68" font-weight="700" fill="#f8fafc" letter-spacing="-1.5">Văn Anh Quân</text>

  <!-- Role -->
  <text x="112" y="302"
        font-family="-apple-system, BlinkMacSystemFont, 'Segoe UI', Helvetica, Arial, sans-serif"
        font-size="30" font-weight="400" fill="#94a3b8">Frontend Developer</text>

  <!-- Tech badges -->
  <!-- React -->
  <rect x="112" y="342" width="86" height="32" rx="16" fill="#1e293b"/>
  <rect x="112" y="342" width="86" height="32" rx="16" stroke="#334155" stroke-width="1" fill="none"/>
  <text x="155" y="363" font-family="-apple-system, BlinkMacSystemFont, 'Segoe UI', sans-serif"
        font-size="14" fill="#7dd3fc" text-anchor="middle">React</text>

  <!-- TypeScript -->
  <rect x="208" y="342" width="120" height="32" rx="16" fill="#1e293b"/>
  <rect x="208" y="342" width="120" height="32" rx="16" stroke="#334155" stroke-width="1" fill="none"/>
  <text x="268" y="363" font-family="-apple-system, BlinkMacSystemFont, 'Segoe UI', sans-serif"
        font-size="14" fill="#7dd3fc" text-anchor="middle">TypeScript</text>

  <!-- React Native -->
  <rect x="338" y="342" width="142" height="32" rx="16" fill="#1e293b"/>
  <rect x="338" y="342" width="142" height="32" rx="16" stroke="#334155" stroke-width="1" fill="none"/>
  <text x="409" y="363" font-family="-apple-system, BlinkMacSystemFont, 'Segoe UI', sans-serif"
        font-size="14" fill="#7dd3fc" text-anchor="middle">React Native</text>

  <!-- Vite -->
  <rect x="490" y="342" width="72" height="32" rx="16" fill="#1e293b"/>
  <rect x="490" y="342" width="72" height="32" rx="16" stroke="#334155" stroke-width="1" fill="none"/>
  <text x="526" y="363" font-family="-apple-system, BlinkMacSystemFont, 'Segoe UI', sans-serif"
        font-size="14" fill="#7dd3fc" text-anchor="middle">Vite</text>

  <!-- Divider -->
  <line x1="112" y1="408" x2="640" y2="408" stroke="#1e293b" stroke-width="1"/>

  <!-- Available badge -->
  <rect x="112" y="424" width="180" height="28" rx="14" fill="#4f46e5" fill-opacity="0.18"/>
  <rect x="112" y="424" width="180" height="28" rx="14" stroke="#6366f1" stroke-opacity="0.4" stroke-width="1" fill="none"/>
  <circle cx="130" cy="438" r="4" fill="#22c55e"/>
  <text x="143" y="443" font-family="-apple-system, BlinkMacSystemFont, 'Segoe UI', sans-serif"
        font-size="13" fill="#a5b4fc">Available for hire</text>

  <!-- URL -->
  <text x="112" y="528"
        font-family="'Courier New', 'Fira Code', monospace"
        font-size="21" fill="#475569">quanva-portfolio.vercel.app</text>

  <!-- Right: code window -->
  <rect x="762" y="138" width="358" height="332" rx="14" fill="#0f172a"/>
  <rect x="762" y="138" width="358" height="332" rx="14" stroke="#1e293b" stroke-width="1" fill="none"/>

  <!-- Window title bar -->
  <rect x="762" y="138" width="358" height="42" rx="14" fill="#1e293b"/>
  <rect x="762" y="158" width="358" height="22" fill="#1e293b"/>

  <!-- Traffic lights -->
  <circle cx="792" cy="159" r="6" fill="#ef4444" fill-opacity="0.85"/>
  <circle cx="812" cy="159" r="6" fill="#f59e0b" fill-opacity="0.85"/>
  <circle cx="832" cy="159" r="6" fill="#22c55e" fill-opacity="0.85"/>

  <!-- Code lines -->
  <text x="784" y="210" font-family="'Courier New', monospace" font-size="14.5" fill="#64748b">const </text>
  <text x="826" y="210" font-family="'Courier New', monospace" font-size="14.5" fill="#e2e8f0">developer</text>
  <text x="921" y="210" font-family="'Courier New', monospace" font-size="14.5" fill="#64748b"> = {</text>

  <text x="784" y="234" font-family="'Courier New', monospace" font-size="14.5" fill="#7dd3fc">  name</text>
  <text x="830" y="234" font-family="'Courier New', monospace" font-size="14.5" fill="#94a3b8">: </text>
  <text x="845" y="234" font-family="'Courier New', monospace" font-size="14.5" fill="#86efac">"QuanVA",</text>

  <text x="784" y="258" font-family="'Courier New', monospace" font-size="14.5" fill="#7dd3fc">  role</text>
  <text x="821" y="258" font-family="'Courier New', monospace" font-size="14.5" fill="#94a3b8">: </text>
  <text x="836" y="258" font-family="'Courier New', monospace" font-size="14.5" fill="#86efac">"Frontend Dev",</text>

  <text x="784" y="282" font-family="'Courier New', monospace" font-size="14.5" fill="#7dd3fc">  stack</text>
  <text x="830" y="282" font-family="'Courier New', monospace" font-size="14.5" fill="#94a3b8">: [</text>

  <text x="784" y="306" font-family="'Courier New', monospace" font-size="14.5" fill="#86efac">    "React",</text>
  <text x="784" y="330" font-family="'Courier New', monospace" font-size="14.5" fill="#86efac">    "TypeScript",</text>
  <text x="784" y="354" font-family="'Courier New', monospace" font-size="14.5" fill="#86efac">    "Vite"</text>

  <text x="784" y="378" font-family="'Courier New', monospace" font-size="14.5" fill="#94a3b8">  ]</text>
  <text x="784" y="402" font-family="'Courier New', monospace" font-size="14.5" fill="#94a3b8">}</text>

  <!-- Blinking cursor -->
  <rect x="800" y="390" width="9" height="17" rx="1" fill="#7c3aed" fill-opacity="0.9"/>
</svg>
